<mxfile host="app.diagrams.net" agent="Mozilla/5.0 (Windows NT 10.0; Win64; x64) AppleWebKit/537.36 (KHTML, like Gecko) Chrome/138.0.0.0 Safari/537.36" version="28.0.7">
  <diagram name="Page-1" id="0BCPLh6qRiG9qErEYgLR">
    <mxGraphModel dx="1874" dy="890" grid="0" gridSize="10" guides="1" tooltips="1" connect="1" arrows="1" fold="1" page="0" pageScale="1" pageWidth="850" pageHeight="1100" math="0" shadow="0">
      <root>
        <mxCell id="0" />
        <mxCell id="1" parent="0" />
        <mxCell id="v-WYYx3yWv5UjmTSIF9d-5" value="" style="shape=image;html=1;verticalAlign=top;verticalLabelPosition=bottom;labelBackgroundColor=#ffffff;imageAspect=0;aspect=fixed;image=https://cdn4.iconfinder.com/data/icons/essential-app-1/16/laptop-computer-website-mobile-128.png" parent="1" vertex="1">
          <mxGeometry x="-110.5" y="148" width="67" height="67" as="geometry" />
        </mxCell>
        <mxCell id="v-WYYx3yWv5UjmTSIF9d-6" value="" style="sketch=0;pointerEvents=1;shadow=0;dashed=0;html=1;strokeColor=none;fillColor=#505050;labelPosition=center;verticalLabelPosition=bottom;verticalAlign=top;outlineConnect=0;align=center;shape=mxgraph.office.devices.cell_phone_generic;" parent="1" vertex="1">
          <mxGeometry x="-98" y="350" width="36" height="70" as="geometry" />
        </mxCell>
        <mxCell id="v-WYYx3yWv5UjmTSIF9d-9" value="" style="whiteSpace=wrap;html=1;dashed=1;dashPattern=12 12;" parent="1" vertex="1">
          <mxGeometry x="66" y="63" width="679" height="480" as="geometry" />
        </mxCell>
        <mxCell id="v-WYYx3yWv5UjmTSIF9d-10" value="" style="rounded=0;whiteSpace=wrap;html=1;dashed=1;" parent="1" vertex="1">
          <mxGeometry x="166" y="106" width="564" height="384" as="geometry" />
        </mxCell>
        <mxCell id="v-WYYx3yWv5UjmTSIF9d-11" value="" style="sketch=0;outlineConnect=0;fontColor=#232F3E;gradientColor=none;fillColor=#8C4FFF;strokeColor=none;dashed=0;verticalLabelPosition=bottom;verticalAlign=top;align=center;html=1;fontSize=12;fontStyle=0;aspect=fixed;pointerEvents=1;shape=mxgraph.aws4.gateway_load_balancer;" parent="1" vertex="1">
          <mxGeometry x="80" y="265" width="66" height="66" as="geometry" />
        </mxCell>
        <mxCell id="sambQnDLKflEwyvzIlkL-4" value="" style="edgeStyle=segmentEdgeStyle;endArrow=classic;html=1;curved=0;rounded=0;endSize=8;startSize=8;exitX=0.5;exitY=1;exitDx=0;exitDy=0;flowAnimation=1;" edge="1" parent="1" source="v-WYYx3yWv5UjmTSIF9d-5" target="v-WYYx3yWv5UjmTSIF9d-11">
          <mxGeometry width="50" height="50" relative="1" as="geometry">
            <mxPoint x="-116" y="293" as="sourcePoint" />
            <mxPoint x="-66" y="243" as="targetPoint" />
            <Array as="points">
              <mxPoint x="-77" y="290" />
            </Array>
          </mxGeometry>
        </mxCell>
        <mxCell id="sambQnDLKflEwyvzIlkL-9" value="" style="endArrow=classic;html=1;rounded=0;flowAnimation=1;" edge="1" parent="1" target="v-WYYx3yWv5UjmTSIF9d-11">
          <mxGeometry width="50" height="50" relative="1" as="geometry">
            <mxPoint x="-76" y="343" as="sourcePoint" />
            <mxPoint x="-6" y="314" as="targetPoint" />
            <Array as="points">
              <mxPoint x="-76" y="298" />
            </Array>
          </mxGeometry>
        </mxCell>
        <mxCell id="sambQnDLKflEwyvzIlkL-10" value="Auth Server&lt;div&gt;(Keycloak)&lt;/div&gt;" style="whiteSpace=wrap;html=1;aspect=fixed;fillColor=#ffe6cc;strokeColor=#d79b00;" vertex="1" parent="1">
          <mxGeometry x="-98" y="460" width="80" height="80" as="geometry" />
        </mxCell>
        <mxCell id="sambQnDLKflEwyvzIlkL-11" value="" style="edgeStyle=elbowEdgeStyle;elbow=horizontal;endArrow=classic;html=1;curved=0;rounded=0;endSize=8;startSize=8;" edge="1" parent="1" source="v-WYYx3yWv5UjmTSIF9d-11">
          <mxGeometry width="50" height="50" relative="1" as="geometry">
            <mxPoint x="71" y="404" as="sourcePoint" />
            <mxPoint x="-16" y="504" as="targetPoint" />
          </mxGeometry>
        </mxCell>
        <mxCell id="sambQnDLKflEwyvzIlkL-13" value="Config Server" style="rounded=0;whiteSpace=wrap;html=1;fillColor=#dae8fc;strokeColor=#6c8ebf;" vertex="1" parent="1">
          <mxGeometry x="96" y="597" width="120" height="44" as="geometry" />
        </mxCell>
        <mxCell id="sambQnDLKflEwyvzIlkL-18" value="API Gateway" style="text;html=1;align=center;verticalAlign=middle;whiteSpace=wrap;rounded=0;" vertex="1" parent="1">
          <mxGeometry x="65" y="240" width="81" height="30" as="geometry" />
        </mxCell>
        <mxCell id="sambQnDLKflEwyvzIlkL-19" value="" style="endArrow=classic;html=1;rounded=0;entryX=0.126;entryY=1.001;entryDx=0;entryDy=0;entryPerimeter=0;" edge="1" parent="1" target="v-WYYx3yWv5UjmTSIF9d-9">
          <mxGeometry width="50" height="50" relative="1" as="geometry">
            <mxPoint x="151" y="593" as="sourcePoint" />
            <mxPoint x="201" y="543" as="targetPoint" />
          </mxGeometry>
        </mxCell>
        <mxCell id="sambQnDLKflEwyvzIlkL-22" value="RabbitMQ" style="rounded=0;whiteSpace=wrap;html=1;fillColor=#dae8fc;strokeColor=#6c8ebf;" vertex="1" parent="1">
          <mxGeometry x="249" y="597" width="120" height="44" as="geometry" />
        </mxCell>
        <mxCell id="sambQnDLKflEwyvzIlkL-23" value="" style="endArrow=classic;html=1;rounded=0;entryX=0.126;entryY=1.001;entryDx=0;entryDy=0;entryPerimeter=0;" edge="1" parent="1">
          <mxGeometry width="50" height="50" relative="1" as="geometry">
            <mxPoint x="304" y="593" as="sourcePoint" />
            <mxPoint x="305" y="543" as="targetPoint" />
          </mxGeometry>
        </mxCell>
        <mxCell id="sambQnDLKflEwyvzIlkL-24" value="Eureka Server" style="rounded=0;whiteSpace=wrap;html=1;fillColor=#dae8fc;strokeColor=#6c8ebf;" vertex="1" parent="1">
          <mxGeometry x="410" y="602" width="120" height="44" as="geometry" />
        </mxCell>
        <mxCell id="sambQnDLKflEwyvzIlkL-25" value="" style="endArrow=classic;html=1;rounded=0;entryX=0.126;entryY=1.001;entryDx=0;entryDy=0;entryPerimeter=0;" edge="1" parent="1">
          <mxGeometry width="50" height="50" relative="1" as="geometry">
            <mxPoint x="465" y="598" as="sourcePoint" />
            <mxPoint x="466" y="548" as="targetPoint" />
          </mxGeometry>
        </mxCell>
        <mxCell id="sambQnDLKflEwyvzIlkL-28" value="User-service" style="rounded=0;whiteSpace=wrap;html=1;fillColor=#f5f5f5;fontColor=#333333;strokeColor=#666666;" vertex="1" parent="1">
          <mxGeometry x="197.5" y="199" width="87" height="38" as="geometry" />
        </mxCell>
        <mxCell id="sambQnDLKflEwyvzIlkL-29" value="Activity-service" style="rounded=0;whiteSpace=wrap;html=1;fillColor=#f5f5f5;fontColor=#333333;strokeColor=#666666;" vertex="1" parent="1">
          <mxGeometry x="195" y="366" width="87" height="38" as="geometry" />
        </mxCell>
        <mxCell id="sambQnDLKflEwyvzIlkL-30" value="MySQL" style="shape=cylinder3;whiteSpace=wrap;html=1;boundedLbl=1;backgroundOutline=1;size=15;fillColor=#d5e8d4;strokeColor=#82b366;" vertex="1" parent="1">
          <mxGeometry x="211" y="106" width="60" height="53" as="geometry" />
        </mxCell>
        <mxCell id="sambQnDLKflEwyvzIlkL-31" value="AI-service" style="rounded=0;whiteSpace=wrap;html=1;fillColor=#f5f5f5;fontColor=#333333;strokeColor=#666666;" vertex="1" parent="1">
          <mxGeometry x="592" y="257" width="87" height="38" as="geometry" />
        </mxCell>
        <mxCell id="sambQnDLKflEwyvzIlkL-32" value="MongoDB" style="shape=cylinder3;whiteSpace=wrap;html=1;boundedLbl=1;backgroundOutline=1;size=15;fillColor=#d5e8d4;strokeColor=#82b366;" vertex="1" parent="1">
          <mxGeometry x="613" y="388" width="60" height="51" as="geometry" />
        </mxCell>
        <mxCell id="sambQnDLKflEwyvzIlkL-33" value="" style="shape=cylinder3;whiteSpace=wrap;html=1;boundedLbl=1;backgroundOutline=1;size=15;rotation=-90;fillColor=#e1d5e7;strokeColor=#9673a6;" vertex="1" parent="1">
          <mxGeometry x="417" y="227" width="60" height="123" as="geometry" />
        </mxCell>
        <mxCell id="sambQnDLKflEwyvzIlkL-34" value="RabbitMQ" style="text;html=1;align=center;verticalAlign=middle;whiteSpace=wrap;rounded=0;" vertex="1" parent="1">
          <mxGeometry x="431" y="275" width="60" height="30" as="geometry" />
        </mxCell>
        <mxCell id="sambQnDLKflEwyvzIlkL-36" value="" style="shape=image;html=1;verticalAlign=top;verticalLabelPosition=bottom;labelBackgroundColor=#ffffff;imageAspect=0;aspect=fixed;image=https://icons.diagrams.net/icon-cache1/Unicons_Line_vol_3-2965/docker-1335.svg" vertex="1" parent="1">
          <mxGeometry x="384" y="279" width="35" height="35" as="geometry" />
        </mxCell>
        <mxCell id="sambQnDLKflEwyvzIlkL-37" value="" style="shape=image;html=1;verticalAlign=top;verticalLabelPosition=bottom;labelBackgroundColor=#ffffff;imageAspect=0;aspect=fixed;image=https://icons.diagrams.net/icon-cache1/Unicons_Line_vol_3-2965/docker-1335.svg" vertex="1" parent="1">
          <mxGeometry x="290" y="206" width="24" height="24" as="geometry" />
        </mxCell>
        <mxCell id="sambQnDLKflEwyvzIlkL-38" value="" style="shape=image;html=1;verticalAlign=top;verticalLabelPosition=bottom;labelBackgroundColor=#ffffff;imageAspect=0;aspect=fixed;image=https://icons.diagrams.net/icon-cache1/Unicons_Line_vol_3-2965/docker-1335.svg" vertex="1" parent="1">
          <mxGeometry x="285" y="374" width="24" height="24" as="geometry" />
        </mxCell>
        <mxCell id="sambQnDLKflEwyvzIlkL-39" value="" style="shape=image;html=1;verticalAlign=top;verticalLabelPosition=bottom;labelBackgroundColor=#ffffff;imageAspect=0;aspect=fixed;image=https://icons.diagrams.net/icon-cache1/Unicons_Line_vol_3-2965/docker-1335.svg" vertex="1" parent="1">
          <mxGeometry x="683" y="265" width="24" height="24" as="geometry" />
        </mxCell>
        <mxCell id="sambQnDLKflEwyvzIlkL-40" value="" style="shape=image;html=1;verticalAlign=top;verticalLabelPosition=bottom;labelBackgroundColor=#ffffff;imageAspect=0;aspect=fixed;image=https://icons.diagrams.net/icon-cache1/Unicons_Line_vol_3-2965/docker-1335.svg" vertex="1" parent="1">
          <mxGeometry x="277" y="121" width="24" height="24" as="geometry" />
        </mxCell>
        <mxCell id="sambQnDLKflEwyvzIlkL-41" value="" style="shape=image;html=1;verticalAlign=top;verticalLabelPosition=bottom;labelBackgroundColor=#ffffff;imageAspect=0;aspect=fixed;image=https://icons.diagrams.net/icon-cache1/Unicons_Line_vol_3-2965/docker-1335.svg" vertex="1" parent="1">
          <mxGeometry x="271" y="458" width="24" height="24" as="geometry" />
        </mxCell>
        <mxCell id="sambQnDLKflEwyvzIlkL-42" value="" style="shape=image;html=1;verticalAlign=top;verticalLabelPosition=bottom;labelBackgroundColor=#ffffff;imageAspect=0;aspect=fixed;image=https://icons.diagrams.net/icon-cache1/Unicons_Line_vol_3-2965/docker-1335.svg" vertex="1" parent="1">
          <mxGeometry x="139" y="266" width="24" height="24" as="geometry" />
        </mxCell>
        <mxCell id="sambQnDLKflEwyvzIlkL-43" value="" style="endArrow=classic;html=1;rounded=0;entryX=0.5;entryY=1;entryDx=0;entryDy=0;entryPerimeter=0;" edge="1" parent="1" target="sambQnDLKflEwyvzIlkL-30">
          <mxGeometry width="50" height="50" relative="1" as="geometry">
            <mxPoint x="242" y="199" as="sourcePoint" />
            <mxPoint x="285" y="146" as="targetPoint" />
          </mxGeometry>
        </mxCell>
        <mxCell id="sambQnDLKflEwyvzIlkL-45" value="" style="endArrow=classic;html=1;rounded=0;entryX=0.5;entryY=1;entryDx=0;entryDy=0;entryPerimeter=0;exitX=0.464;exitY=0.224;exitDx=0;exitDy=0;exitPerimeter=0;" edge="1" parent="1" source="sambQnDLKflEwyvzIlkL-32">
          <mxGeometry width="50" height="50" relative="1" as="geometry">
            <mxPoint x="643.29" y="335" as="sourcePoint" />
            <mxPoint x="642.29" y="295" as="targetPoint" />
          </mxGeometry>
        </mxCell>
        <mxCell id="sambQnDLKflEwyvzIlkL-46" value="" style="endArrow=classic;html=1;rounded=0;entryX=0;entryY=0.75;entryDx=0;entryDy=0;" edge="1" parent="1" target="sambQnDLKflEwyvzIlkL-36">
          <mxGeometry width="50" height="50" relative="1" as="geometry">
            <mxPoint x="283" y="368" as="sourcePoint" />
            <mxPoint x="333" y="318" as="targetPoint" />
          </mxGeometry>
        </mxCell>
        <mxCell id="sambQnDLKflEwyvzIlkL-47" value="" style="endArrow=classic;html=1;rounded=0;entryX=0.393;entryY=1.244;entryDx=0;entryDy=0;entryPerimeter=0;" edge="1" parent="1" target="sambQnDLKflEwyvzIlkL-28">
          <mxGeometry width="50" height="50" relative="1" as="geometry">
            <mxPoint x="231" y="366" as="sourcePoint" />
            <mxPoint x="281" y="316" as="targetPoint" />
          </mxGeometry>
        </mxCell>
        <mxCell id="sambQnDLKflEwyvzIlkL-48" value="" style="endArrow=classic;html=1;rounded=0;entryX=0;entryY=0.5;entryDx=0;entryDy=0;" edge="1" parent="1" target="sambQnDLKflEwyvzIlkL-31">
          <mxGeometry width="50" height="50" relative="1" as="geometry">
            <mxPoint x="509" y="292" as="sourcePoint" />
            <mxPoint x="559" y="242" as="targetPoint" />
          </mxGeometry>
        </mxCell>
        <mxCell id="sambQnDLKflEwyvzIlkL-49" value="Google&#39;s Gemini Server" style="rounded=0;whiteSpace=wrap;html=1;fillColor=#f5f5f5;fontColor=#333333;strokeColor=#666666;" vertex="1" parent="1">
          <mxGeometry x="832" y="77" width="87" height="38" as="geometry" />
        </mxCell>
        <mxCell id="sambQnDLKflEwyvzIlkL-50" value="" style="edgeStyle=segmentEdgeStyle;endArrow=classic;html=1;curved=0;rounded=0;endSize=8;startSize=8;exitX=1;exitY=0.5;exitDx=0;exitDy=0;entryX=0.64;entryY=1.207;entryDx=0;entryDy=0;entryPerimeter=0;" edge="1" parent="1" source="sambQnDLKflEwyvzIlkL-39" target="sambQnDLKflEwyvzIlkL-49">
          <mxGeometry width="50" height="50" relative="1" as="geometry">
            <mxPoint x="836" y="277" as="sourcePoint" />
            <mxPoint x="886" y="227" as="targetPoint" />
          </mxGeometry>
        </mxCell>
        <mxCell id="sambQnDLKflEwyvzIlkL-51" value="" style="endArrow=classic;html=1;rounded=0;entryX=0;entryY=0.5;entryDx=0;entryDy=0;" edge="1" parent="1" target="v-WYYx3yWv5UjmTSIF9d-10">
          <mxGeometry width="50" height="50" relative="1" as="geometry">
            <mxPoint x="144" y="305" as="sourcePoint" />
            <mxPoint x="194" y="255" as="targetPoint" />
          </mxGeometry>
        </mxCell>
      </root>
    </mxGraphModel>
  </diagram>
</mxfile>
